<svg width="93" height="93" viewBox="0 0 93 93" fill="none" xmlns="http://www.w3.org/2000/svg">
<g clip-path="url(#clip0_6_15)">
<path d="M46.5 0C37.3031 0 28.3128 2.72718 20.6659 7.83666C13.0191 12.9461 7.05904 20.2085 3.53956 28.7052C0.0200868 37.202 -0.900768 46.5516 0.893444 55.5717C2.68766 64.5918 7.11635 72.8773 13.6195 79.3805C20.1226 85.8836 28.4081 90.3123 37.4283 92.1065C46.4484 93.9007 55.798 92.9799 64.2947 89.4604C72.7915 85.9409 80.0538 79.9809 85.1633 72.334C90.2728 64.6871 93 55.6968 93 46.5C93 40.3935 91.7972 34.3469 89.4604 28.7052C87.1235 23.0636 83.6983 17.9375 79.3804 13.6195C75.0625 9.30161 69.9364 5.87645 64.2947 3.5396C58.6531 1.20276 52.6064 0 46.5 0V0ZM46.5 87.2526C38.4067 87.2526 30.4953 84.8527 23.766 80.3563C17.0368 75.86 11.7919 69.4692 8.69481 61.992C5.59767 54.5149 4.78732 46.2872 6.36623 38.3495C7.94513 30.4118 11.8424 23.1206 17.5652 17.3978C23.2879 11.675 30.5792 7.77777 38.5169 6.19887C46.4546 4.61996 54.6822 5.43031 62.1594 8.52745C69.6365 11.6246 76.0273 16.8694 80.5237 23.5987C85.02 30.3279 87.42 38.2394 87.42 46.3326C87.415 57.182 83.1016 67.5854 75.4282 75.2554C67.7547 82.9253 57.3494 87.234 46.5 87.234V87.2526Z" fill="black"/>
<path d="M46.5 6.789C38.6643 6.789 31.0046 9.11256 24.4895 13.4658C17.9743 17.8191 12.8964 24.0066 9.89778 31.2459C6.89918 38.4851 6.11462 46.451 7.64329 54.1361C9.17196 61.8212 12.9452 68.8805 18.4859 74.4212C24.0266 79.9618 31.0858 83.7351 38.771 85.2638C46.4561 86.7924 54.422 86.0079 61.6612 83.0093C68.9004 80.0107 75.0879 74.9327 79.4412 68.4176C83.7945 61.9024 86.118 54.2427 86.118 46.407C86.1033 35.9042 81.9245 25.8358 74.4979 18.4091C67.0713 10.9825 57.0029 6.80376 46.5 6.789V6.789Z" fill="black"/>
<path d="M33.7018 24.8538C38.5201 24.8538 41.7491 26.4025 43.3888 29.4998C44.5225 31.8482 45.0894 34.1459 45.0894 36.3932H45.0286C41.7287 36.6766 39.4715 36.8183 38.2569 36.8183C38.2569 35.2189 37.7609 33.8727 36.7689 32.7796C35.8376 32.2532 34.9772 31.99 34.1876 31.99H32.9729C30.908 31.99 29.6528 32.7897 29.2075 34.389C29.1063 34.8546 29.0557 35.219 29.0557 35.4822V36.1199C29.0557 38.3873 30.2501 40.0271 32.6389 41.0393C32.8413 41.2215 34.5014 41.9807 37.6192 43.3168C39.2793 44.0861 40.8177 45.0376 42.2351 46.1713V46.2321H34.6128V47.0823H44.6643V48.297H45.9397V61.4765H43.4496V68.2482H24.1362V61.4765H19.5813V56.9215H22.1625V55.3424H19.5813V54.2796H28.4182V61.4767H37.4677V50.6357H30.6959V47.0827H22.2842V46.2324H26.3534V46.1717C22.7904 43.8031 21.0086 40.4525 21.0086 36.1202V35.5432C21.0086 31.9196 22.1221 29.1661 24.3489 27.2832C26.3734 25.6637 29.491 24.8538 33.702 24.8538L33.7018 24.8538ZM44.6643 46.2319H47.7314V47.0822H44.6643V46.2319ZM16.6656 55.3421H19.5808V56.9212H16.6656V55.3421ZM36.131 55.3421L37.042 55.3421C37.1432 55.3623 37.1938 55.413 37.1938 55.494V55.7065H36.4042V55.9798H37.1027V56.1924C37.1027 56.2936 37.0622 56.3442 36.9812 56.3442H36.4042V56.6479H37.1938V56.8605C37.1938 56.9415 37.1432 56.9819 37.042 56.9819H36.1309C36.0297 56.9819 35.9791 56.9415 35.9791 56.8605V55.494C35.9994 55.3927 36.05 55.3421 36.131 55.3421L36.131 55.3421ZM35.7665 57.4983L36.0398 57.4983C36.0803 57.4983 36.2524 57.6805 36.556 58.0449C36.6978 57.6805 36.8091 57.4983 36.8901 57.4983H37.1027C37.2039 57.4983 37.2545 57.5388 37.2545 57.6198C36.8294 58.1057 36.6168 58.6118 36.6168 59.1382H36.4042C36.303 59.1382 36.2322 58.8547 36.1917 58.2879C35.9083 57.9032 35.7665 57.64 35.7665 57.4983L35.7665 57.4983ZM35.5538 59.624L35.8271 59.624C35.9486 59.624 36.0701 59.9378 36.1915 60.5654H36.3434C36.4648 59.9378 36.5762 59.624 36.6774 59.624H36.9811C37.0621 59.6443 37.1025 59.6949 37.1025 59.7759V61.112C37.1025 61.2132 37.0621 61.2639 36.9811 61.2639H36.7685V60.3528H36.6774L36.4041 61.2639H36.1915C36.0903 61.2639 35.9688 60.9602 35.8271 60.3528H35.7664V61.2639H35.5538C35.4526 61.2639 35.402 61.2132 35.402 61.112V59.7759C35.4222 59.6747 35.4728 59.624 35.5538 59.624H35.5538ZM43.8742 61.8409H44.603C44.9877 61.8409 45.18 62.0332 45.18 62.4178C45.0788 62.4178 45.0282 62.4583 45.0282 62.5393C45.1699 62.7215 45.2407 62.8936 45.2407 63.0556C45.1193 63.339 44.8561 63.4807 44.4512 63.4807H44.026C43.9248 63.4807 43.8742 63.4301 43.8742 63.3289V61.8409L43.8742 61.8409ZM44.2996 62.205V62.4783H44.6033C44.6842 62.4783 44.7247 62.4277 44.7247 62.3265V62.205H44.2996H44.2996ZM44.2996 62.7517V63.1161H44.664C44.7652 63.1161 44.8158 63.0655 44.8158 62.9642V62.9035C44.8158 62.8023 44.7652 62.7517 44.664 62.7517H44.2996V62.7517ZM43.8742 63.9663H44.1779C44.2791 63.9663 44.4917 64.3003 44.8156 64.9684H44.8763V63.9663H45.2407V65.4543C45.2407 65.5555 45.1901 65.6061 45.0889 65.6061H44.9371C44.8966 65.6061 44.6638 65.3024 44.2386 64.6951V65.4543C44.2386 65.5555 44.188 65.6061 44.0868 65.6061H44.026C43.9248 65.6061 43.8742 65.5555 43.8742 65.4543V63.9663L43.8742 63.9663ZM49.614 24.7014L58.1775 24.7014V32.9004C58.1775 35.6335 58.1269 38.5792 58.0257 41.7373V41.8284H58.1168C58.8254 40.4922 60.7486 37.0508 63.8867 31.5036C65.5062 28.6896 66.316 26.5637 66.316 25.1264V24.7013H75.0923V24.9139C75.0923 27.7076 73.9484 30.7543 71.6608 34.0545L66.4376 41.6158L71.5697 52.5177H76.1856V53.8235H70.9929V53.9146C71.8229 55.6962 72.3594 56.7691 72.6023 57.1337H73.5437V61.0813H74.8799V68.1874C73.3818 68.2279 72.2785 68.2481 71.5697 68.2481H69.444C68.6949 68.2481 67.6726 68.2279 66.3769 68.1874V63.4197H64.4638V57.1337H63.3706L62.2167 53.8235H70.9018V52.5177H62.9456C62.9456 52.4165 62.4799 50.9488 61.5487 48.1146H61.4576C60.9717 49.0458 59.9999 50.5135 58.5423 52.5177H62.2166V53.8235H58.1779V55.9492H57.6616V65.9096H58.1779V68.096C58.1779 68.1972 58.1272 68.2478 58.026 68.2478H49.766C49.6648 68.2478 49.6142 68.1972 49.6142 68.096V64.6646H53.5012V63.2069H49.6142V24.7008L49.614 24.7014ZM71.7821 50.3011H72.2376C72.3591 50.3011 72.5008 50.6959 72.6628 51.4855C72.7438 51.4855 72.8956 51.0907 73.1183 50.3011H73.756V52.1535C73.756 52.2547 73.7155 52.3054 73.6345 52.3054H73.3308V51.121H73.2701C73.2701 51.202 73.1486 51.5968 72.9057 52.3054H72.6628C72.521 52.3054 72.3793 51.9612 72.2376 51.2729H72.1465V52.1535C72.1465 52.2547 72.106 52.3054 72.025 52.3054H71.7821C71.7011 52.3054 71.6606 52.2547 71.6606 52.1535V50.4529C71.6606 50.3517 71.7011 50.3011 71.7821 50.3011L71.7821 50.3011ZM53.1366 52.518V53.8237H58.117C58.117 53.6618 58.2384 53.2265 58.4814 52.518H53.1366H53.1366ZM64.5548 63.7234H64.98C65.0407 63.7234 65.1925 63.8854 65.4355 64.2093C65.6177 63.8854 65.7391 63.7234 65.7999 63.7234H66.225V63.7841L65.648 64.6648C65.7493 64.685 65.9719 64.9988 66.3161 65.6061H65.7087L65.4354 65.0292C65.1318 65.4138 64.9597 65.6061 64.9192 65.6061H64.4637C64.8078 64.9988 65.0305 64.685 65.1317 64.6648L64.5547 63.7841V63.7234H64.5548Z" fill="#FEF2A2"/>
</g>
<defs>
<clipPath id="clip0_6_15">
<rect width="93" height="93" fill="white"/>
</clipPath>
</defs>
</svg>
